#Comment line ignore any data following # character 
#Hierarchical Translation and Rotation (.htr) file 
[Header]	
#Header keywords are followed by a single value 
FileType HTR		#Single word string
DataType HTRS		#Translation followed by rotation and scale data
FileVersion 1		#integer
NumSegments 84		#integer
NumFrames 2		#integer
DataFrameRate 30		#integer, data frame rate in this file
EulerRotationOrder ZYX
CalibrationUnits mm
RotationUnits Degrees
GlobalAxisofGravity Y
BoneLengthAxis Y
ScaleFactor 1.00
[SegmentNames&Hierarchy]
#CHILD	PARENT
MASTER GLOBAL
root MASTER
chest root
L_mid_tent01 root
R_mid_tent01 root
spine01 root
Bip01_Neck chest
L_humerus chest
R_humerus chest
weapon_bone chest
Bip01_Head Bip01_Neck
eye_left_bone Bip01_Head
eye_right_bone Bip01_Head
L_forearm L_humerus
L_front_hand L_forearm
L_weapon_bone L_forearm
L_front_hand01_01 L_front_hand
L_front_hand02_01 L_front_hand
L_front_hand03_01 L_front_hand
L_front_hand01_02 L_front_hand01_01
L_front_hand02_02 L_front_hand02_01
L_front_hand03_02 L_front_hand03_01
R_forearm R_humerus
R_front_hand R_forearm
R_weapon_bone R_forearm
R_front_hand01_01 R_front_hand
R_front_hand02_01 R_front_hand
R_front_hand03_01 R_front_hand
R_front_hand01_02 R_front_hand01_01
R_front_hand02_02 R_front_hand02_01
R_front_hand03_02 R_front_hand03_01
null_rope01_connect L_mid_tent01
Rope1_Seg01 null_rope01_connect
Rope1_Seg02 Rope1_Seg01
Rope1_Seg03 Rope1_Seg02
Rope1_Seg04 Rope1_Seg03
Rope1_Seg05 Rope1_Seg04
Rope1_Seg06 Rope1_Seg05
Rope1_Seg07 Rope1_Seg06
Rope1_Seg09 Rope1_Seg07
L_mid_hand01 Rope1_Seg09
L_mid_hand02 Rope1_Seg09
L_mid_hand03 Rope1_Seg09
null_rope02_connect R_mid_tent01
Rope2_Seg01 null_rope02_connect
Rope2_Seg02 Rope2_Seg01
Rope2_Seg03 Rope2_Seg02
Rope2_Seg04 Rope2_Seg03
Rope2_Seg05 Rope2_Seg04
Rope2_Seg06 Rope2_Seg05
Rope2_Seg07 Rope2_Seg06
Rope2_Seg09 Rope2_Seg07
R_mid_hand01 Rope2_Seg09
R_mid_hand02 Rope2_Seg09
R_mid_hand03 Rope2_Seg09
spine02 spine01
spine03 spine02
pelvis spine03
null_rope03_connect pelvis
null_rope04_connect pelvis
Rope3_Seg01 null_rope03_connect
Rope3_Seg02 Rope3_Seg01
Rope3_Seg03 Rope3_Seg02
Rope3_Seg04 Rope3_Seg03
Rope3_Seg05 Rope3_Seg04
Rope3_Seg06 Rope3_Seg05
Rope3_Seg07 Rope3_Seg06
Rope3_Seg08 Rope3_Seg07
Rope3_Seg09 Rope3_Seg08
R_rear_hand01 Rope3_Seg09
R_rear_hand02 Rope3_Seg09
R_rear_hand03 Rope3_Seg09
Rope4_Seg01 null_rope04_connect
Rope4_Seg02 Rope4_Seg01
Rope4_Seg03 Rope4_Seg02
Rope4_Seg04 Rope4_Seg03
Rope4_Seg05 Rope4_Seg04
Rope4_Seg06 Rope4_Seg05
Rope4_Seg07 Rope4_Seg06
Rope4_Seg08 Rope4_Seg07
Rope4_Seg09 Rope4_Seg08
L_rear_hand01 Rope4_Seg09
L_rear_hand02 Rope4_Seg09
L_rear_hand03 Rope4_Seg09
[BasePosition]
#SegmentName Tx, Ty, Tz, Rx, Ry, Rz, BoneLength
MASTER 0.000000 0.000000 0.000000 -90.000000 0.000000 0.000000 10.000000 
root 0.000000 0.000000 0.000000 0.000000 0.000000 0.000000 10.000000 
chest 0.000000 0.000000 0.000000 0.000000 0.000000 0.000000 10.000000 
L_mid_tent01 0.000000 0.000000 0.000000 0.000000 0.000000 0.000000 10.000000 
R_mid_tent01 0.000000 0.000000 0.000000 0.000000 0.000000 0.000000 10.000000 
spine01 0.000000 0.000000 0.000000 0.000000 0.000000 0.000000 10.000000 
Bip01_Neck 0.000000 0.000000 0.000000 0.000000 0.000000 0.000000 10.000000 
L_humerus 0.000000 0.000000 0.000000 0.000000 0.000000 0.000000 10.000000 
R_humerus 0.000000 0.000000 0.000000 0.000000 0.000000 0.000000 10.000000 
weapon_bone 0.000000 0.000000 0.000000 0.000000 0.000000 0.000000 10.000000 
Bip01_Head 0.000000 0.000000 0.000000 0.000000 0.000000 0.000000 10.000000 
eye_left_bone 0.000000 0.000000 0.000000 0.000000 0.000000 0.000000 10.000000 
eye_right_bone 0.000000 0.000000 0.000000 0.000000 0.000000 0.000000 10.000000 
L_forearm 0.000000 0.000000 0.000000 0.000000 0.000000 0.000000 10.000000 
L_front_hand 0.000000 0.000000 0.000000 0.000000 0.000000 0.000000 10.000000 
L_weapon_bone 0.000000 0.000000 0.000000 0.000000 0.000000 0.000000 10.000000 
L_front_hand01_01 0.000000 0.000000 0.000000 0.000000 0.000000 0.000000 10.000000 
L_front_hand02_01 0.000000 0.000000 0.000000 0.000000 0.000000 0.000000 10.000000 
L_front_hand03_01 0.000000 0.000000 0.000000 0.000000 0.000000 0.000000 10.000000 
L_front_hand01_02 0.000000 0.000000 0.000000 0.000000 0.000000 0.000000 10.000000 
L_front_hand02_02 0.000000 0.000000 0.000000 0.000000 0.000000 0.000000 10.000000 
L_front_hand03_02 0.000000 0.000000 0.000000 0.000000 0.000000 0.000000 10.000000 
R_forearm 0.000000 0.000000 0.000000 0.000000 0.000000 0.000000 10.000000 
R_front_hand 0.000000 0.000000 0.000000 0.000000 0.000000 0.000000 10.000000 
R_weapon_bone 0.000000 0.000000 0.000000 0.000000 0.000000 0.000000 10.000000 
R_front_hand01_01 0.000000 0.000000 0.000000 0.000000 0.000000 0.000000 10.000000 
R_front_hand02_01 0.000000 0.000000 0.000000 0.000000 0.000000 0.000000 10.000000 
R_front_hand03_01 0.000000 0.000000 0.000000 0.000000 0.000000 0.000000 10.000000 
R_front_hand01_02 0.000000 0.000000 0.000000 0.000000 0.000000 0.000000 10.000000 
R_front_hand02_02 0.000000 0.000000 0.000000 0.000000 0.000000 0.000000 10.000000 
R_front_hand03_02 0.000000 0.000000 0.000000 0.000000 0.000000 0.000000 10.000000 
null_rope01_connect 0.000000 0.000000 0.000000 0.000000 0.000000 0.000000 10.000000 
Rope1_Seg01 0.000000 0.000000 0.000000 0.000000 0.000000 0.000000 10.000000 
Rope1_Seg02 0.000000 0.000000 0.000000 0.000000 0.000000 0.000000 10.000000 
Rope1_Seg03 0.000000 0.000000 0.000000 0.000000 0.000000 0.000000 10.000000 
Rope1_Seg04 0.000000 0.000000 0.000000 0.000000 0.000000 0.000000 10.000000 
Rope1_Seg05 0.000000 0.000000 0.000000 0.000000 0.000000 0.000000 10.000000 
Rope1_Seg06 0.000000 0.000000 0.000000 0.000000 0.000000 0.000000 10.000000 
Rope1_Seg07 0.000000 0.000000 0.000000 0.000000 0.000000 0.000000 10.000000 
Rope1_Seg09 0.000000 0.000000 0.000000 0.000000 0.000000 0.000000 10.000000 
L_mid_hand01 0.000000 0.000000 0.000000 0.000000 0.000000 0.000000 10.000000 
L_mid_hand02 0.000000 0.000000 0.000000 0.000000 0.000000 0.000000 10.000000 
L_mid_hand03 0.000000 0.000000 0.000000 0.000000 0.000000 0.000000 10.000000 
null_rope02_connect 0.000000 0.000000 0.000000 0.000000 0.000000 0.000000 10.000000 
Rope2_Seg01 0.000000 0.000000 0.000000 0.000000 0.000000 0.000000 10.000000 
Rope2_Seg02 0.000000 0.000000 0.000000 0.000000 0.000000 0.000000 10.000000 
Rope2_Seg03 0.000000 0.000000 0.000000 0.000000 0.000000 0.000000 10.000000 
Rope2_Seg04 0.000000 0.000000 0.000000 0.000000 0.000000 0.000000 10.000000 
Rope2_Seg05 0.000000 0.000000 0.000000 0.000000 0.000000 0.000000 10.000000 
Rope2_Seg06 0.000000 0.000000 0.000000 0.000000 0.000000 0.000000 10.000000 
Rope2_Seg07 0.000000 0.000000 0.000000 0.000000 0.000000 0.000000 10.000000 
Rope2_Seg09 0.000000 0.000000 0.000000 0.000000 0.000000 0.000000 10.000000 
R_mid_hand01 0.000000 0.000000 0.000000 0.000000 0.000000 0.000000 10.000000 
R_mid_hand02 0.000000 0.000000 0.000000 0.000000 0.000000 0.000000 10.000000 
R_mid_hand03 0.000000 0.000000 0.000000 0.000000 0.000000 0.000000 10.000000 
spine02 0.000000 0.000000 0.000000 0.000000 0.000000 0.000000 10.000000 
spine03 0.000000 0.000000 0.000000 0.000000 0.000000 0.000000 10.000000 
pelvis 0.000000 0.000000 0.000000 0.000000 0.000000 0.000000 10.000000 
null_rope03_connect 0.000000 0.000000 0.000000 0.000000 0.000000 0.000000 10.000000 
null_rope04_connect 0.000000 0.000000 0.000000 0.000000 0.000000 0.000000 10.000000 
Rope3_Seg01 0.000000 0.000000 0.000000 0.000000 0.000000 0.000000 10.000000 
Rope3_Seg02 0.000000 0.000000 0.000000 0.000000 0.000000 0.000000 10.000000 
Rope3_Seg03 0.000000 0.000000 0.000000 0.000000 0.000000 0.000000 10.000000 
Rope3_Seg04 0.000000 0.000000 0.000000 0.000000 0.000000 0.000000 10.000000 
Rope3_Seg05 0.000000 0.000000 0.000000 0.000000 0.000000 0.000000 10.000000 
Rope3_Seg06 0.000000 0.000000 0.000000 0.000000 0.000000 0.000000 10.000000 
Rope3_Seg07 0.000000 0.000000 0.000000 0.000000 0.000000 0.000000 10.000000 
Rope3_Seg08 0.000000 0.000000 0.000000 0.000000 0.000000 0.000000 10.000000 
Rope3_Seg09 0.000000 0.000000 0.000000 0.000000 0.000000 0.000000 10.000000 
R_rear_hand01 0.000000 0.000000 0.000000 0.000000 0.000000 0.000000 10.000000 
R_rear_hand02 0.000000 0.000000 0.000000 0.000000 0.000000 0.000000 10.000000 
R_rear_hand03 0.000000 0.000000 0.000000 0.000000 0.000000 0.000000 10.000000 
Rope4_Seg01 0.000000 0.000000 0.000000 0.000000 0.000000 0.000000 10.000000 
Rope4_Seg02 0.000000 0.000000 0.000000 0.000000 0.000000 0.000000 10.000000 
Rope4_Seg03 0.000000 0.000000 0.000000 0.000000 0.000000 0.000000 10.000000 
Rope4_Seg04 0.000000 0.000000 0.000000 0.000000 0.000000 0.000000 10.000000 
Rope4_Seg05 0.000000 0.000000 0.000000 0.000000 0.000000 0.000000 10.000000 
Rope4_Seg06 0.000000 0.000000 0.000000 0.000000 0.000000 0.000000 10.000000 
Rope4_Seg07 0.000000 0.000000 0.000000 0.000000 0.000000 0.000000 10.000000 
Rope4_Seg08 0.000000 0.000000 0.000000 0.000000 0.000000 0.000000 10.000000 
Rope4_Seg09 0.000000 0.000000 0.000000 0.000000 0.000000 0.000000 10.000000 
L_rear_hand01 0.000000 0.000000 0.000000 0.000000 0.000000 0.000000 10.000000 
L_rear_hand02 0.000000 0.000000 0.000000 0.000000 0.000000 0.000000 10.000000 
L_rear_hand03 0.000000 0.000000 0.000000 0.000000 0.000000 0.000000 10.000000 
#Beginning of Data. Separated by tabs
#Fr	Tx	Ty	Tz	Rx	Ry	Rz	SF
[MASTER]
31 -0.000568 3656.784668 2695.688965 0.001660 0.001660 0.001660 4542.996094
32 -0.000575 3711.772217 2699.736816 0.001660 0.001660 0.001660 4589.752930
[root]
31 -16.502230 -56.531345 1494.647095 -91.633522 -26.275021 -89.906479 1495.806885
32 -16.502203 -49.643795 1489.558960 -91.647987 -24.739601 -89.801262 1490.477295
[chest]
31 -84.512650 -34.090519 0.000000 -2.047044 0.698588 175.978317 91.129311
32 -84.512650 -34.090519 0.000000 -2.064605 0.623194 175.113129 91.129311
[L_mid_tent01]
31 27.298941 22.178991 -249.918640 -29.168962 12.030208 5.621988 252.381592
32 27.298935 22.178988 -249.918640 -28.223455 12.082605 6.439828 252.381592
[R_mid_tent01]
31 23.228794 24.509907 226.238495 -146.096680 -11.895032 1.551266 228.744751
32 23.228794 24.509907 226.238495 -147.939331 -12.742589 3.669983 228.744751
[spine01]
31 -0.361383 -0.195265 0.000000 0.002027 0.001183 29.460289 0.410763
32 -0.361383 -0.195265 0.000000 0.002018 0.001199 28.574738 0.410763
[Bip01_Neck]
31 165.484543 71.581718 0.000119 176.643677 -1.657967 43.431911 180.302734
32 165.484543 71.581718 0.000119 176.643677 -1.657967 43.431911 180.302734
[L_humerus]
31 -13.983130 -135.272980 -120.471481 -5.480131 68.873390 84.573479 181.680161
32 -13.983130 -135.272980 -120.471481 -5.480124 68.873367 84.573479 181.680161
[R_humerus]
31 -13.983309 -135.273102 125.287651 27.830746 -69.921524 67.902313 184.909012
32 -13.983309 -135.273102 125.287651 27.830740 -69.921516 67.902298 184.909012
[weapon_bone]
31 235.964890 -300.705902 0.000000 0.000000 -89.951546 -128.212341 382.234833
32 235.964890 -300.705902 0.000000 0.000000 -89.951546 -128.212341 382.234833
[Bip01_Head]
31 213.329956 186.034668 7.658730 5.200445 6.151310 -43.834984 283.155823
32 213.329224 186.036621 7.633857 5.200446 6.151311 -43.834991 283.155914
[eye_left_bone]
31 -24.626970 125.451866 -64.772606 0.000000 -90.000000 -99.840431 143.318359
32 -24.626970 125.451866 -64.772606 0.000000 -90.000000 -99.840431 143.318359
[eye_right_bone]
31 -24.626970 125.451866 64.327362 0.000000 -89.965736 80.156380 143.117676
32 -24.626970 125.451866 64.327362 0.000000 -89.965736 80.156380 143.117676
[L_forearm]
31 322.776093 0.000000 -0.000119 0.000406 -0.002312 -109.916061 322.776093
32 322.776093 0.000000 -0.000119 0.000404 -0.002312 -109.831429 322.776093
[L_front_hand]
31 241.149185 -0.042021 -3.300071 -178.667953 -1.835447 -27.422350 241.171753
32 241.149185 -0.042021 -3.300071 -178.667953 -1.835447 -27.422350 241.171753
[L_weapon_bone]
31 156.183838 0.000000 0.000000 0.000014 0.000007 0.000001 156.183838
32 156.183838 0.000000 0.000000 0.000014 0.000007 0.000001 156.183838
[L_front_hand01_01]
31 86.095154 20.947098 -0.655860 -0.365371 -0.478091 75.092110 88.609184
32 86.095154 20.947098 -0.655860 -0.366282 -0.477394 75.310593 88.609184
[L_front_hand02_01]
31 86.935165 -11.437475 24.513514 153.946472 -59.758556 -60.843468 91.046425
32 86.935165 -11.437475 24.513514 154.278549 -59.851875 -61.226555 91.046425
[L_front_hand03_01]
31 86.637497 -14.123976 -20.424902 -153.504349 57.989815 -62.217369 90.126129
32 86.637497 -14.123976 -20.424902 -153.811539 58.084946 -62.579308 90.126129
[L_front_hand01_02]
31 71.020905 -0.000179 0.000030 0.000328 -0.002324 -106.046089 71.020905
32 71.020905 -0.000179 0.000030 0.000329 -0.002324 -106.099617 71.020905
[L_front_hand02_02]
31 71.020927 -0.000119 0.000060 0.000328 -0.002324 -106.046089 71.020927
32 71.020927 -0.000119 0.000060 0.000329 -0.002324 -106.099617 71.020927
[L_front_hand03_02]
31 71.020905 -0.000060 0.000060 0.000328 -0.002324 -106.046089 71.020905
32 71.020905 -0.000060 0.000060 0.000329 -0.002324 -106.099617 71.020905
[R_forearm]
31 322.776428 -0.000060 0.000030 0.201813 0.066053 -108.570740 322.776428
32 322.776428 -0.000060 0.000030 0.201869 0.065878 -108.471695 322.776428
[R_front_hand]
31 238.847015 -0.006795 2.210259 -2.635298 -10.645461 -26.312506 238.857239
32 238.847015 -0.006795 2.210259 -2.635298 -10.645461 -26.312506 238.857239
[R_weapon_bone]
31 155.664093 0.002503 -0.000030 0.003487 0.001180 -90.988930 155.664078
32 155.664093 0.002503 -0.000030 0.003487 0.001180 -90.988930 155.664078
[R_front_hand01_01]
31 87.624611 14.231146 22.918642 -154.633514 -59.950626 61.746063 91.683487
32 87.624611 14.231146 22.918642 -154.633484 -59.950619 61.746037 91.683487
[R_front_hand02_01]
31 89.356956 14.367283 -19.491137 154.602676 58.302856 63.744400 92.579636
32 89.356956 14.367283 -19.491137 154.602661 58.302849 63.744389 92.579636
[R_front_hand03_01]
31 87.286232 -22.307278 -0.143439 0.162155 -0.423168 -75.767921 90.091743
32 87.286232 -22.307278 -0.143439 0.162155 -0.423168 -75.767906 90.091743
[R_front_hand01_02]
31 71.020905 0.000060 0.000119 0.002323 -0.000334 106.381714 71.020905
32 71.020905 0.000060 0.000119 0.002323 -0.000334 106.381714 71.020905
[R_front_hand02_02]
31 71.020844 -0.000030 -0.000119 0.002323 -0.000334 106.381714 71.020836
32 71.020844 -0.000030 -0.000119 0.002323 -0.000334 106.381714 71.020836
[R_front_hand03_02]
31 71.020905 0.000000 0.000030 0.002323 -0.000334 106.381714 71.020905
32 71.020905 0.000000 0.000030 0.002323 -0.000334 106.381714 71.020905
[null_rope01_connect]
31 328.732483 0.000000 -0.000238 -139.636765 -57.130508 -112.715363 328.732483
32 328.732483 0.000000 -0.000238 -141.313843 -58.028816 -113.275871 328.732483
[Rope1_Seg01]
31 0.000029 -0.000244 -0.000235 118.502007 19.958649 -136.212357 0.000340
32 0.000030 -0.000250 -0.000243 107.929146 17.346966 -134.469742 0.000350
[Rope1_Seg02]
31 139.999863 -0.000179 0.000000 -39.465515 10.106912 6.323903 139.999863
32 139.999863 -0.000179 0.000000 -35.666386 8.598445 6.825682 139.999863
[Rope1_Seg03]
31 139.999924 0.000060 -0.000060 -25.385839 4.745139 13.589671 139.999924
32 139.999924 0.000060 -0.000060 -22.966318 3.825837 12.701822 139.999924
[Rope1_Seg04]
31 139.999924 -0.000060 -0.000119 -10.684617 -1.647807 13.974814 139.999924
32 139.999924 -0.000060 -0.000119 -9.925220 -1.530085 12.505844 139.999924
[Rope1_Seg05]
31 139.999832 0.000119 -0.000060 2.630095 -0.827226 -2.258521 139.999832
32 139.999832 0.000119 -0.000060 3.211304 -0.497393 -3.030715 139.999832
[Rope1_Seg06]
31 139.999954 0.000119 -0.000060 2.831687 -0.181123 -3.016009 139.999954
32 139.999954 0.000119 -0.000060 2.988710 -0.133895 -2.960687 139.999954
[Rope1_Seg07]
31 139.999985 0.000060 0.000000 0.724988 -0.331929 -0.430727 139.999985
32 139.999985 0.000060 0.000000 0.863590 -0.276002 -0.564252 139.999985
[Rope1_Seg09]
31 121.602913 0.000119 -0.000089 -89.793175 -1.359789 0.847147 121.602913
32 121.602913 0.000119 -0.000089 -89.793175 -1.359789 0.847147 121.602913
[L_mid_hand01]
31 103.859421 1.038730 8.195221 130.544373 -67.584534 -38.866943 104.187431
32 103.859421 1.038730 8.195221 130.544373 -67.584534 -38.866943 104.187431
[L_mid_hand02]
31 105.572853 -4.139662 -10.864139 -168.923172 43.409309 -73.498886 106.211075
32 105.572853 -4.139662 -10.864139 -168.923172 43.409309 -73.498886 106.211075
[L_mid_hand03]
31 104.641464 17.579376 -3.913581 -6.012627 17.808174 74.893669 106.179977
32 104.641464 17.579376 -3.913581 -6.012627 17.808174 74.893669 106.179977
[null_rope02_connect]
31 328.732849 0.000179 -0.000119 -137.482346 55.818077 -68.402458 328.732849
32 328.732849 0.000179 -0.000119 -138.617508 57.204330 -65.835236 328.732849
[Rope2_Seg01]
31 0.000106 -0.000208 0.000000 53.129028 -21.078863 -63.719383 0.000234
32 0.000107 -0.000219 0.000000 46.460239 -17.124613 -57.031029 0.000244
[Rope2_Seg02]
31 139.999741 -0.000060 -0.000119 -0.876259 -0.262043 1.091760 139.999756
32 139.999741 -0.000060 -0.000119 2.470950 -5.336348 -0.073892 139.999756
[Rope2_Seg03]
31 140.000107 0.000030 0.000000 -0.816620 0.427258 0.730605 140.000107
32 140.000107 0.000030 0.000000 1.158183 -2.971666 0.045830 140.000107
[Rope2_Seg04]
31 139.999802 0.000000 -0.000060 -0.746925 0.692559 0.526356 139.999802
32 139.999802 0.000000 -0.000060 0.639099 -1.779130 0.041202 139.999802
[Rope2_Seg05]
31 139.999985 -0.000060 0.000119 0.449125 -1.650993 0.183149 139.999985
32 139.999985 -0.000060 0.000119 0.546389 -2.175696 0.228719 139.999985
[Rope2_Seg06]
31 139.999893 -0.000030 -0.000119 1.377219 -4.084716 0.006988 139.999893
32 139.999893 -0.000030 -0.000119 0.612641 -3.126891 0.454960 139.999893
[Rope2_Seg07]
31 139.999893 0.000060 -0.000060 0.956906 -3.595819 0.149760 139.999893
32 139.999893 0.000060 -0.000060 0.480745 -2.849190 0.430007 139.999893
[Rope2_Seg09]
31 121.338966 0.000089 -0.000060 33.793236 -1.359788 -0.847141 121.338966
32 121.338966 0.000089 -0.000060 33.793236 -1.359788 -0.847141 121.338966
[R_mid_hand01]
31 104.680779 11.144459 -10.335981 -16.212063 45.237247 70.462852 105.778534
32 104.680779 11.144459 -10.335981 -16.212063 45.237247 70.462852 105.778534
[R_mid_hand02]
31 104.070427 2.443552 8.231699 49.067368 -67.749771 39.286453 104.424065
32 104.070427 2.443552 8.231699 49.067368 -67.749771 39.286453 104.424065
[R_mid_hand03]
31 106.028137 -11.221827 -5.996406 -177.101105 15.551026 -76.585571 106.788818
32 106.028137 -11.221827 -5.996406 -177.101105 15.551026 -76.585571 106.788818
[spine02]
31 129.756927 0.001550 0.000119 -0.190359 -4.055418 -5.172810 129.756927
32 129.756927 0.001550 0.000119 -0.123188 -4.057123 -6.123503 129.756927
[spine03]
31 78.614166 0.081717 -4.899028 1.925341 3.816817 16.918924 78.766708
32 78.614166 0.081725 -4.899028 1.919817 3.820192 16.843760 78.766708
[pelvis]
31 169.435242 0.051022 0.000000 -0.061883 -0.179743 14.990358 169.435257
32 169.435242 0.051022 0.000000 -0.061632 -0.179830 14.830760 169.435257
[null_rope03_connect]
31 -1.257226 -2.466202 137.391083 -146.886993 -88.945755 -152.973938 137.418976
32 -1.257226 -2.466202 137.391083 -152.819992 -89.047142 -146.502792 137.418976
[null_rope04_connect]
31 -1.259640 -2.480268 -137.844437 -146.886993 -88.945755 -152.973938 137.872513
32 -1.259640 -2.480268 -137.844437 -152.819992 -89.047142 -146.502792 137.872513
[Rope3_Seg01]
31 -0.000029 -0.000009 0.000235 -121.452881 27.013567 -54.690441 0.000237
32 -0.000029 -0.000008 0.000243 -123.135017 26.505568 -57.742344 0.000244
[Rope3_Seg02]
31 139.999924 -0.000119 0.000060 -2.369581 7.972641 -5.461306 139.999924
32 139.999924 -0.000119 0.000060 -2.333622 7.658538 -7.129497 139.999924
[Rope3_Seg03]
31 139.999924 -0.000119 0.000119 -0.231062 1.350989 -0.441269 139.999924
32 139.999924 -0.000119 0.000119 -0.621028 2.200634 -2.280955 139.999924
[Rope3_Seg04]
31 139.999924 0.000119 0.000000 -6.201432 14.986941 -13.232844 139.999924
32 139.999924 0.000119 0.000000 -2.141659 8.072206 -4.216515 139.999924
[Rope3_Seg05]
31 139.999924 -0.000238 0.000060 -4.541884 12.214500 -9.189071 139.999924
32 139.999924 -0.000238 0.000060 -1.147359 5.820522 -2.627091 139.999924
[Rope3_Seg06]
31 139.999893 -0.000119 -0.000060 -1.068357 4.714678 -3.017648 139.999893
32 139.999893 -0.000119 -0.000060 -0.067467 2.488969 -1.132635 139.999893
[Rope3_Seg07]
31 139.999771 0.000060 -0.000119 -0.421456 3.111235 -1.914669 139.999771
32 139.999771 0.000060 -0.000119 0.187611 1.734032 -0.786898 139.999771
[Rope3_Seg08]
31 139.999985 -0.000060 0.000000 -0.007361 1.891014 -1.146031 139.999985
32 139.999985 -0.000060 0.000000 0.343097 1.096173 -0.499534 139.999985
[Rope3_Seg09]
31 90.185997 -0.000179 -0.000060 89.793228 -1.359877 -0.847183 90.185997
32 90.185997 -0.000179 -0.000060 89.793228 -1.359877 -0.847183 90.185997
[R_rear_hand01]
31 103.366196 -6.073594 -10.757982 -177.714203 24.565960 -73.910950 104.101845
32 103.366196 -6.073594 -10.757982 -177.714203 24.565960 -73.910950 104.101845
[R_rear_hand02]
31 100.509819 12.039542 -7.992327 -12.874829 36.868488 72.167213 101.543350
32 100.509819 12.039542 -7.992327 -12.874829 36.868488 72.167213 101.543350
[R_rear_hand03]
31 101.539970 5.215704 5.435467 71.484581 -71.816628 21.513813 101.819031
32 101.539970 5.215704 5.435467 71.484581 -71.816628 21.513813 101.819031
[Rope4_Seg01]
31 0.000010 0.000009 -0.000035 48.833862 -0.408386 -111.739098 0.000038
32 0.000010 0.000008 -0.000031 48.076241 4.420709 -112.307289 0.000034
[Rope4_Seg02]
31 139.999985 0.000060 0.000119 0.019320 1.757385 0.506483 139.999985
32 139.999985 0.000060 0.000119 0.274060 2.656818 2.783581 139.999985
[Rope4_Seg03]
31 139.999924 0.000000 -0.000238 0.034693 2.726825 0.764354 139.999924
32 139.999924 0.000000 -0.000238 0.274427 3.927015 4.054928 139.999924
[Rope4_Seg04]
31 139.999985 0.000000 0.000119 0.742462 16.364985 2.891877 139.999985
32 139.999985 0.000000 0.000119 1.131817 16.477747 11.237280 139.999985
[Rope4_Seg05]
31 139.999802 -0.000060 -0.000119 0.702591 -25.989649 -2.135001 139.999802
32 139.999802 -0.000060 -0.000119 -1.263667 -13.592929 -0.081799 139.999802
[Rope4_Seg06]
31 139.999924 0.000000 0.000060 6.698734 -29.593134 -3.219623 139.999924
32 139.999924 0.000000 0.000060 4.116674 -31.672083 -11.917408 139.999924
[Rope4_Seg07]
31 139.999802 0.000000 0.000000 4.388688 -9.273497 0.127202 139.999802
32 139.999802 0.000000 0.000000 1.817449 -11.548758 -3.006252 139.999802
[Rope4_Seg08]
31 139.999924 0.000000 0.000119 1.396321 -4.495503 0.407186 139.999924
32 139.999924 0.000000 0.000119 -0.337780 -5.766798 -1.323347 139.999924
[Rope4_Seg09]
31 90.185791 0.000060 0.000060 -135.617828 2.228885 0.850567 90.185791
32 90.185791 0.000060 0.000060 -135.617828 2.228885 0.850567 90.185791
[L_rear_hand01]
31 101.696655 -8.392275 -7.654577 -12.874829 -36.868488 107.832764 102.329041
32 101.696655 -8.392275 -7.654577 -12.874829 -36.868488 107.832764 102.329041
[L_rear_hand02]
31 102.726799 -1.568258 5.773216 71.484581 71.816628 158.486160 102.900848
32 102.726799 -1.568258 5.773216 71.484581 71.816628 158.486160 102.900848
[L_rear_hand03]
31 104.552910 9.721220 -10.420293 -177.714203 -24.565960 -106.089035 105.519653
32 104.552910 9.721220 -10.420293 -177.714203 -24.565960 -106.089035 105.519653
